<?xml version="1.0" standalone="no"?>
<!DOCTYPE svg PUBLIC "-//W3C//DTD SVG 20010904//EN"
 "http://www.w3.org/TR/2001/REC-SVG-20010904/DTD/svg10.dtd">
<svg version="1.0" xmlns="http://www.w3.org/2000/svg"
 width="512.000000pt" height="512.000000pt" viewBox="0 0 512.000000 512.000000"
 preserveAspectRatio="xMidYMid meet">
<metadata>
Created by potrace 1.14, written by Peter Selinger 2001-2017
</metadata>
<g transform="translate(0.000000,512.000000) scale(0.100000,-0.100000)"
fill="#000000" stroke="none">
<path d="M856 5105 c-212 -36 -406 -137 -557 -292 -158 -161 -250 -342 -284
-560 -14 -86 -15 -305 -12 -1738 3 -1837 -3 -1685 77 -1881 51 -126 130 -241
232 -340 101 -99 200 -164 325 -215 193 -79 56 -74 1923 -74 1869 0 1729 -5
1925 75 127 51 242 130 341 232 99 101 164 200 215 325 79 193 74 56 74 1923
0 1867 5 1730 -74 1923 -102 250 -307 456 -555 557 -196 80 -42 74 -1896 76
-1339 2 -1670 0 -1734 -11z m551 -745 l2 -165 -384 -510 -385 -510 395 -3 395
-2 0 -170 0 -170 -625 0 -625 0 0 172 0 172 375 498 c206 273 375 500 375 502
0 3 -163 7 -362 8 l-363 3 -3 160 c-1 87 0 165 2 172 4 11 121 13 603 11 l598
-3 2 -165z m714 -1569 c137 -344 251 -626 253 -628 2 -2 117 280 256 627 l252
630 184 0 184 0 0 -850 0 -850 -181 0 -180 0 3 450 c2 248 3 450 2 450 0 0
-79 -202 -175 -450 l-174 -450 -170 0 -170 0 -175 454 c-96 250 -175 454 -176
453 -1 -1 2 -40 6 -87 5 -47 9 -250 9 -452 l1 -368 -180 0 -180 0 0 850 0 850
181 -2 182 -3 248 -624z m1746 -967 c95 -253 189 -519 209 -590 20 -71 40
-133 44 -137 4 -5 13 15 20 45 20 83 78 250 249 713 l159 430 191 3 c105 1
191 -1 191 -5 0 -5 -138 -385 -307 -846 l-308 -837 -194 2 -194 3 -309 825
c-169 453 -311 832 -314 842 -5 17 6 18 193 16 l198 -3 172 -461z"/>
</g>
</svg>
